<svg width="91" height="53" viewBox="0 0 91 53" fill="none" xmlns="http://www.w3.org/2000/svg">
<g filter="url(#filter0_d_18_2068)">
<rect x="11" y="11" width="61" height="23" rx="11.5" fill="url(#paint0_linear_18_2068)" fill-opacity="0.3"/>
<path d="M21.36 27L24.384 18.12H26.844L29.868 27H27.924L27.36 25.26H23.88L23.304 27H21.36ZM24.396 23.652H26.844L25.62 19.944L24.396 23.652ZM33.9826 27.12C33.4226 27.12 32.9346 27.028 32.5186 26.844C32.1026 26.652 31.7586 26.4 31.4866 26.088C31.2146 25.776 31.0106 25.424 30.8746 25.032C30.7386 24.632 30.6706 24.228 30.6706 23.82C30.6706 23.412 30.7386 23.012 30.8746 22.62C31.0106 22.228 31.2146 21.876 31.4866 21.564C31.7586 21.244 32.1026 20.992 32.5186 20.808C32.9346 20.616 33.4226 20.52 33.9826 20.52C34.5506 20.52 35.0186 20.604 35.3866 20.772C35.7546 20.932 36.0466 21.136 36.2626 21.384C36.4866 21.624 36.6506 21.868 36.7546 22.116C36.8586 22.356 36.9226 22.56 36.9466 22.728C36.9786 22.888 36.9946 22.968 36.9946 22.968H35.2906C35.2906 22.968 35.2746 22.92 35.2426 22.824C35.2186 22.72 35.1626 22.604 35.0746 22.476C34.9946 22.34 34.8706 22.224 34.7026 22.128C34.5346 22.024 34.3106 21.972 34.0306 21.972C33.6866 21.972 33.3986 22.06 33.1666 22.236C32.9426 22.404 32.7746 22.628 32.6626 22.908C32.5506 23.188 32.4946 23.492 32.4946 23.82C32.4946 24.148 32.5506 24.452 32.6626 24.732C32.7746 25.012 32.9426 25.24 33.1666 25.416C33.3986 25.584 33.6866 25.668 34.0306 25.668C34.3106 25.668 34.5346 25.62 34.7026 25.524C34.8706 25.42 34.9946 25.304 35.0746 25.176C35.1626 25.04 35.2186 24.924 35.2426 24.828C35.2746 24.724 35.2906 24.672 35.2906 24.672H36.9946C36.9946 24.672 36.9786 24.756 36.9466 24.924C36.9226 25.084 36.8586 25.288 36.7546 25.536C36.6506 25.776 36.4866 26.02 36.2626 26.268C36.0466 26.508 35.7546 26.712 35.3866 26.88C35.0186 27.04 34.5506 27.12 33.9826 27.12ZM41.2655 27.12C40.7695 27.12 40.3735 27.048 40.0775 26.904C39.7815 26.752 39.5575 26.564 39.4055 26.34C39.2535 26.108 39.1535 25.864 39.1055 25.608C39.0575 25.352 39.0335 25.116 39.0335 24.9V22.092H37.9535V20.64H39.0335V19.068H40.8575V20.64H42.2135V22.092H40.8575V24.852C40.8575 25.116 40.9255 25.32 41.0615 25.464C41.2055 25.608 41.4415 25.68 41.7695 25.68C41.9135 25.68 42.0455 25.668 42.1655 25.644C42.2855 25.62 42.3455 25.608 42.3455 25.608V27.012C42.3455 27.012 42.2375 27.028 42.0215 27.06C41.8055 27.1 41.5535 27.12 41.2655 27.12ZM44.6432 19.776C44.3232 19.776 44.0632 19.676 43.8632 19.476C43.6632 19.268 43.5632 19.024 43.5632 18.744C43.5632 18.448 43.6632 18.2 43.8632 18C44.0632 17.792 44.3232 17.688 44.6432 17.688C44.9472 17.688 45.2032 17.792 45.4112 18C45.6192 18.2 45.7232 18.448 45.7232 18.744C45.7232 19.024 45.6192 19.268 45.4112 19.476C45.2032 19.676 44.9472 19.776 44.6432 19.776ZM43.7312 27V20.64H45.5552V27H43.7312ZM50.366 27.12C49.654 27.12 49.05 26.968 48.554 26.664C48.058 26.352 47.678 25.948 47.414 25.452C47.158 24.948 47.03 24.404 47.03 23.82C47.03 23.236 47.158 22.696 47.414 22.2C47.678 21.696 48.058 21.292 48.554 20.988C49.05 20.676 49.654 20.52 50.366 20.52C51.078 20.52 51.682 20.676 52.178 20.988C52.674 21.292 53.05 21.696 53.306 22.2C53.57 22.696 53.702 23.236 53.702 23.82C53.702 24.404 53.57 24.948 53.306 25.452C53.05 25.948 52.674 26.352 52.178 26.664C51.682 26.968 51.078 27.12 50.366 27.12ZM50.366 25.632C50.686 25.632 50.954 25.548 51.17 25.38C51.394 25.212 51.566 24.992 51.686 24.72C51.806 24.44 51.866 24.14 51.866 23.82C51.866 23.492 51.806 23.192 51.686 22.92C51.566 22.648 51.394 22.428 51.17 22.26C50.954 22.092 50.686 22.008 50.366 22.008C50.046 22.008 49.774 22.092 49.55 22.26C49.326 22.428 49.154 22.648 49.034 22.92C48.922 23.192 48.866 23.492 48.866 23.82C48.866 24.14 48.922 24.44 49.034 24.72C49.154 24.992 49.326 25.212 49.55 25.38C49.774 25.548 50.046 25.632 50.366 25.632ZM54.9421 27V20.64H56.7661V21.552H56.8261C56.8981 21.424 57.0021 21.28 57.1381 21.12C57.2821 20.96 57.4701 20.82 57.7021 20.7C57.9421 20.58 58.2461 20.52 58.6141 20.52C59.1101 20.52 59.5141 20.636 59.8261 20.868C60.1381 21.092 60.3661 21.384 60.5101 21.744C60.6541 22.096 60.7261 22.468 60.7261 22.86V27H58.9021V23.172C58.9021 22.868 58.8181 22.6 58.6501 22.368C58.4901 22.136 58.2301 22.02 57.8701 22.02C57.5981 22.02 57.3821 22.084 57.2221 22.212C57.0621 22.34 56.9461 22.504 56.8741 22.704C56.8021 22.904 56.7661 23.116 56.7661 23.34V27H54.9421Z" fill="white"/>
</g>
<defs>
<filter id="filter0_d_18_2068" x="0" y="0" width="91" height="53" filterUnits="userSpaceOnUse" color-interpolation-filters="sRGB">
<feFlood flood-opacity="0" result="BackgroundImageFix"/>
<feColorMatrix in="SourceAlpha" type="matrix" values="0 0 0 0 0 0 0 0 0 0 0 0 0 0 0 0 0 0 127 0" result="hardAlpha"/>
<feOffset dx="4" dy="4"/>
<feGaussianBlur stdDeviation="7.5"/>
<feComposite in2="hardAlpha" operator="out"/>
<feColorMatrix type="matrix" values="0 0 0 0 0 0 0 0 0 0 0 0 0 0 0 0 0 0 0.25 0"/>
<feBlend mode="normal" in2="BackgroundImageFix" result="effect1_dropShadow_18_2068"/>
<feBlend mode="normal" in="SourceGraphic" in2="effect1_dropShadow_18_2068" result="shape"/>
</filter>
<linearGradient id="paint0_linear_18_2068" x1="11" y1="22.5" x2="72" y2="22.5" gradientUnits="userSpaceOnUse">
<stop stop-color="#A6A1E0"/>
<stop offset="1" stop-color="#A1F3FE"/>
</linearGradient>
</defs>
</svg>
