<svg width="24" height="24" viewBox="0 0 24 24" fill="none" xmlns="http://www.w3.org/2000/svg">
<path d="M20.9967 13.6718C20.9956 15.3048 20.3466 16.8708 19.1922 18.0259C18.0378 19.181 16.4722 19.8309 14.8392 19.833H3.75342C3.55451 19.833 3.36374 19.754 3.22309 19.6133C3.08244 19.4727 3.00342 19.2819 3.00342 19.083C3.00342 18.8841 3.08244 18.6933 3.22309 18.5527C3.36374 18.412 3.55451 18.333 3.75342 18.333H14.8392C16.0676 18.322 17.242 17.8263 18.1068 16.9537C18.9716 16.0811 19.4567 14.9023 19.4567 13.6738C19.4567 12.4453 18.9716 11.2665 18.1068 10.394C17.242 9.52139 16.0676 9.02566 14.8392 9.01463H5.84667L8.30104 11.0325C8.37761 11.0949 8.4411 11.1718 8.48787 11.2588C8.53464 11.3458 8.56377 11.4411 8.57359 11.5394C8.58341 11.6377 8.57371 11.7369 8.54507 11.8315C8.51643 11.926 8.4694 12.0139 8.40668 12.0902C8.34397 12.1665 8.2668 12.2297 8.17961 12.276C8.09242 12.3224 7.99692 12.3512 7.89861 12.3605C7.80029 12.3699 7.70109 12.3598 7.60669 12.3308C7.5123 12.3017 7.42457 12.2543 7.34854 12.1913L3.27717 8.84363C3.26817 8.83613 3.26142 8.82713 3.25279 8.81926C3.23327 8.80155 3.21474 8.78277 3.19729 8.76301L3.19129 8.75738C3.18604 8.75138 3.17929 8.74688 3.17404 8.74088V8.73863C3.16617 8.72926 3.16054 8.71838 3.15342 8.70863C3.13867 8.68903 3.12502 8.66863 3.11254 8.64751C3.10954 8.64263 3.10542 8.63813 3.10279 8.63288C3.10017 8.62763 3.09342 8.62051 3.09004 8.61376C3.08667 8.60701 3.08217 8.59351 3.07767 8.58376C3.06754 8.56201 3.05892 8.53988 3.05067 8.51701L3.04804 8.51026C3.04054 8.48888 3.03379 8.46713 3.02817 8.44538C3.02254 8.42363 3.01879 8.40076 3.01542 8.37788C3.01317 8.36401 3.00867 8.35088 3.00754 8.33701C3.00642 8.32313 3.00754 8.31038 3.00754 8.29726C3.00754 8.28413 3.00417 8.27588 3.00417 8.26463C3.00417 8.25338 3.00717 8.24288 3.00754 8.23163C3.00792 8.22038 3.00754 8.20538 3.00754 8.19226C3.00754 8.17913 3.01317 8.16488 3.01542 8.15101C3.01879 8.12813 3.02292 8.10563 3.02817 8.08351C3.03342 8.06138 3.04054 8.04001 3.04804 8.01863L3.05067 8.01188C3.05892 7.98901 3.06754 7.96688 3.07767 7.94513C3.08217 7.93538 3.08479 7.92488 3.09004 7.91513C3.09529 7.90538 3.09904 7.90276 3.10279 7.89601C3.10654 7.88926 3.10954 7.88626 3.11254 7.88138C3.12478 7.86028 3.13817 7.83988 3.15267 7.82026C3.15979 7.81051 3.16542 7.79963 3.17329 7.79026V7.78838C3.18079 7.77901 3.19017 7.77263 3.19804 7.76363C3.21529 7.74488 3.23292 7.72613 3.25204 7.70963C3.26067 7.70176 3.26742 7.69276 3.27642 7.68526L3.28017 7.68188L7.35004 4.33763C7.42607 4.27459 7.5138 4.22718 7.60819 4.19813C7.70259 4.16908 7.80179 4.15895 7.90011 4.16834C7.99842 4.17773 8.09392 4.20645 8.18111 4.25284C8.2683 4.29924 8.34547 4.3624 8.40818 4.43869C8.4709 4.51499 8.51793 4.60292 8.54657 4.69744C8.57521 4.79196 8.5849 4.89121 8.57509 4.98948C8.56527 5.08776 8.53614 5.18313 8.48937 5.27012C8.4426 5.35711 8.37911 5.434 8.30254 5.49638L5.84817 7.51463H14.8407C16.4729 7.51682 18.0376 8.16625 19.1916 9.32049C20.3456 10.4747 20.9948 12.0396 20.9967 13.6718Z" fill="white" fill-opacity="0.75"/>
</svg>
