<svg width="31" height="23" viewBox="0 0 31 23" fill="none" xmlns="http://www.w3.org/2000/svg">
<g clip-path="url(#clip0_18_2426)">
<path d="M30.4909 0H0.449724C0.444861 0 0.440918 0.00300511 0.440918 0.00671211V22.9039C0.440918 22.9077 0.444861 22.9107 0.449724 22.9107H30.4909C30.4957 22.9107 30.4997 22.9077 30.4997 22.9039V0.00671211C30.4997 0.00300511 30.4957 0 30.4909 0Z" fill="#F5C518"/>
<path d="M6.54658 14.6771V8.23352H4.19824V14.6771H6.54658ZM11.5368 8.23352L11.0084 11.2316L10.7149 9.62069L10.4213 8.23352H7.48592V14.6771H9.48201V10.4261L10.3039 14.6771H11.7716L12.5349 10.3366V14.6771H14.5309V8.23352H11.5368ZM15.4703 14.6771V8.23352H19.1102C19.9908 8.23352 20.6366 8.72574 20.6366 9.3522V13.5585C20.6366 14.1849 19.9908 14.6771 19.1102 14.6771H15.4703ZM18.2296 9.39695L17.7012 9.3522V13.5585C17.9948 13.5585 18.2296 13.5137 18.2883 13.4242C18.4057 13.3347 18.4057 13.0662 18.4057 12.6188V10.1129V9.57594L18.2296 9.39695ZM25.0398 9.84442H25.2159C26.0378 9.84442 26.7423 10.3366 26.7423 10.9631V13.5585C26.7423 14.1849 26.0378 14.6771 25.2159 14.6771H25.0398C24.5701 14.6771 24.1004 14.4982 23.8069 14.1849L23.6895 14.5876H21.576V8.23352H23.8069V10.2919C24.1004 10.0234 24.5701 9.84442 25.0398 9.84442ZM24.5701 12.9767V11.4553L24.5114 10.9631C24.4527 10.8736 24.2766 10.8289 24.1591 10.8289C24.0417 10.8289 23.8656 10.8736 23.8069 10.9631V13.5137C23.8656 13.6032 24.0417 13.648 24.1591 13.648C24.2766 13.648 24.5114 13.6032 24.5114 13.5137L24.5701 12.9767Z" fill="black"/>
</g>
<defs>
<clipPath id="clip0_18_2426">
<rect x="0.440918" width="30.0588" height="22.9107" rx="5" fill="white"/>
</clipPath>
</defs>
</svg>
