<svg width="103" height="53" viewBox="0 0 103 53" fill="none" xmlns="http://www.w3.org/2000/svg">
<g filter="url(#filter0_d_18_2424)">
<rect x="11" y="11" width="73" height="22.9107" rx="11.4553" fill="#F5C518"/>
<g clip-path="url(#clip0_18_2424)">
<path d="M47.4909 11H17.4497C17.4449 11 17.4409 11.003 17.4409 11.0067V33.9039C17.4409 33.9077 17.4449 33.9107 17.4497 33.9107H47.4909C47.4957 33.9107 47.4997 33.9077 47.4997 33.9039V11.0067C47.4997 11.003 47.4957 11 47.4909 11Z" fill="#F5C518"/>
<path d="M23.5466 25.6771V19.2335H21.1982V25.6771H23.5466ZM28.5368 19.2335L28.0084 22.2316L27.7149 20.6207L27.4213 19.2335H24.4859V25.6771H26.482V21.4261L27.3039 25.6771H28.7716L29.5349 21.3366V25.6771H31.5309V19.2335H28.5368ZM32.4703 25.6771V19.2335H36.1102C36.9908 19.2335 37.6366 19.7257 37.6366 20.3522V24.5585C37.6366 25.1849 36.9908 25.6771 36.1102 25.6771H32.4703ZM35.2296 20.397L34.7012 20.3522V24.5585C34.9948 24.5585 35.2296 24.5137 35.2883 24.4242C35.4057 24.3347 35.4057 24.0662 35.4057 23.6188V21.1129V20.5759L35.2296 20.397ZM42.0398 20.8444H42.2159C43.0378 20.8444 43.7423 21.3366 43.7423 21.9631V24.5585C43.7423 25.1849 43.0378 25.6771 42.2159 25.6771H42.0398C41.5701 25.6771 41.1004 25.4982 40.8069 25.1849L40.6895 25.5876H38.576V19.2335H40.8069V21.2919C41.1004 21.0234 41.5701 20.8444 42.0398 20.8444ZM41.5701 23.9767V22.4553L41.5114 21.9631C41.4527 21.8736 41.2766 21.8289 41.1591 21.8289C41.0417 21.8289 40.8656 21.8736 40.8069 21.9631V24.5137C40.8656 24.6032 41.0417 24.648 41.1591 24.648C41.2766 24.648 41.5114 24.6032 41.5114 24.5137L41.5701 23.9767Z" fill="black"/>
</g>
<path d="M56.996 27.12C56.388 27.12 55.828 27.02 55.316 26.82C54.812 26.612 54.404 26.32 54.092 25.944C53.788 25.56 53.636 25.1 53.636 24.564C53.636 24.148 53.716 23.8 53.876 23.52C54.036 23.24 54.22 23.02 54.428 22.86C54.636 22.692 54.82 22.576 54.98 22.512C55.148 22.44 55.232 22.404 55.232 22.404V22.332C55.232 22.332 55.16 22.3 55.016 22.236C54.88 22.172 54.72 22.068 54.536 21.924C54.36 21.78 54.204 21.588 54.068 21.348C53.932 21.1 53.864 20.8 53.864 20.448C53.864 19.952 54 19.524 54.272 19.164C54.552 18.796 54.928 18.512 55.4 18.312C55.88 18.104 56.412 18 56.996 18C57.588 18 58.12 18.104 58.592 18.312C59.072 18.512 59.448 18.796 59.72 19.164C60 19.524 60.14 19.948 60.14 20.436C60.14 20.796 60.068 21.1 59.924 21.348C59.788 21.588 59.628 21.78 59.444 21.924C59.268 22.068 59.108 22.172 58.964 22.236C58.828 22.3 58.76 22.332 58.76 22.332V22.404C58.768 22.404 58.852 22.44 59.012 22.512C59.172 22.576 59.356 22.692 59.564 22.86C59.772 23.02 59.956 23.24 60.116 23.52C60.276 23.8 60.356 24.148 60.356 24.564C60.356 25.1 60.204 25.56 59.9 25.944C59.596 26.32 59.188 26.612 58.676 26.82C58.172 27.02 57.612 27.12 56.996 27.12ZM56.996 21.72C57.396 21.72 57.728 21.612 57.992 21.396C58.264 21.172 58.4 20.896 58.4 20.568C58.4 20.232 58.268 19.956 58.004 19.74C57.74 19.524 57.404 19.416 56.996 19.416C56.596 19.416 56.264 19.524 56 19.74C55.736 19.956 55.604 20.232 55.604 20.568C55.604 20.904 55.736 21.18 56 21.396C56.264 21.612 56.596 21.72 56.996 21.72ZM56.996 25.68C57.348 25.68 57.64 25.616 57.872 25.488C58.112 25.352 58.288 25.184 58.4 24.984C58.52 24.784 58.58 24.572 58.58 24.348C58.58 24.14 58.52 23.94 58.4 23.748C58.288 23.548 58.112 23.384 57.872 23.256C57.64 23.128 57.348 23.064 56.996 23.064C56.644 23.064 56.352 23.128 56.12 23.256C55.888 23.384 55.712 23.548 55.592 23.748C55.472 23.94 55.412 24.14 55.412 24.348C55.412 24.572 55.472 24.784 55.592 24.984C55.712 25.184 55.888 25.352 56.12 25.488C56.36 25.616 56.652 25.68 56.996 25.68ZM63.0316 27.12C62.7276 27.12 62.4796 27.02 62.2876 26.82C62.0956 26.612 61.9996 26.372 61.9996 26.1C61.9996 25.812 62.0956 25.568 62.2876 25.368C62.4796 25.168 62.7276 25.068 63.0316 25.068C63.3196 25.068 63.5596 25.168 63.7516 25.368C63.9516 25.568 64.0516 25.812 64.0516 26.1C64.0516 26.38 63.9516 26.62 63.7516 26.82C63.5596 27.02 63.3196 27.12 63.0316 27.12ZM69.1272 27.12C68.5272 27.12 68.0152 27.024 67.5912 26.832C67.1672 26.64 66.8192 26.396 66.5472 26.1C66.2832 25.804 66.0872 25.496 65.9592 25.176C65.8392 24.848 65.7792 24.548 65.7792 24.276H67.4952C67.4952 24.276 67.5072 24.344 67.5312 24.48C67.5632 24.616 67.6312 24.772 67.7352 24.948C67.8392 25.124 67.9992 25.28 68.2152 25.416C68.4312 25.552 68.7232 25.62 69.0912 25.62C69.4592 25.62 69.7632 25.544 70.0032 25.392C70.2432 25.232 70.4232 25.032 70.5432 24.792C70.6632 24.552 70.7232 24.3 70.7232 24.036C70.7232 23.764 70.6632 23.508 70.5432 23.268C70.4232 23.02 70.2432 22.82 70.0032 22.668C69.7712 22.508 69.4792 22.428 69.1272 22.428C68.8552 22.428 68.6312 22.472 68.4552 22.56C68.2792 22.64 68.1392 22.736 68.0352 22.848C67.9312 22.952 67.8552 23.048 67.8072 23.136C67.7672 23.216 67.7472 23.256 67.7472 23.256H65.9232L66.7032 18.12H71.9352V19.728H67.9632L67.6512 21.756H67.6992C67.7392 21.716 67.8192 21.636 67.9392 21.516C68.0672 21.396 68.2592 21.284 68.5152 21.18C68.7712 21.068 69.1112 21.012 69.5352 21.012C70.1752 21.012 70.7192 21.156 71.1672 21.444C71.6152 21.732 71.9512 22.104 72.1752 22.56C72.4072 23.008 72.5232 23.484 72.5232 23.988C72.5232 24.38 72.4512 24.76 72.3072 25.128C72.1712 25.496 71.9632 25.832 71.6832 26.136C71.4032 26.432 71.0512 26.672 70.6272 26.856C70.2032 27.032 69.7032 27.12 69.1272 27.12Z" fill="black"/>
</g>
<defs>
<filter id="filter0_d_18_2424" x="0" y="0" width="103" height="52.9107" filterUnits="userSpaceOnUse" color-interpolation-filters="sRGB">
<feFlood flood-opacity="0" result="BackgroundImageFix"/>
<feColorMatrix in="SourceAlpha" type="matrix" values="0 0 0 0 0 0 0 0 0 0 0 0 0 0 0 0 0 0 127 0" result="hardAlpha"/>
<feOffset dx="4" dy="4"/>
<feGaussianBlur stdDeviation="7.5"/>
<feComposite in2="hardAlpha" operator="out"/>
<feColorMatrix type="matrix" values="0 0 0 0 0 0 0 0 0 0 0 0 0 0 0 0 0 0 0.25 0"/>
<feBlend mode="normal" in2="BackgroundImageFix" result="effect1_dropShadow_18_2424"/>
<feBlend mode="normal" in="SourceGraphic" in2="effect1_dropShadow_18_2424" result="shape"/>
</filter>
<clipPath id="clip0_18_2424">
<rect x="17.4409" y="11" width="30.0588" height="22.9107" rx="5" fill="white"/>
</clipPath>
</defs>
</svg>
