<svg width="31" height="3" viewBox="0 0 31 3" fill="none" xmlns="http://www.w3.org/2000/svg">
<path d="M0.523121 1.67949C0.494891 1.82324 0.4959 1.96574 0.526091 2.09878C0.556283 2.23182 0.615059 2.35275 0.699028 2.45462C0.782999 2.55648 0.890501 2.63725 1.01533 2.69228C1.14017 2.7473 1.27986 2.77548 1.42635 2.7752L29.6532 2.8342C29.7995 2.83509 29.9499 2.80752 30.0957 2.75306C30.2416 2.69861 30.3801 2.61835 30.5031 2.51692C30.6262 2.41549 30.7314 2.29489 30.8127 2.16209C30.8939 2.02928 30.9497 1.8869 30.9767 1.74315C31.005 1.5994 31.004 1.45689 30.9738 1.32386C30.9436 1.19082 30.8848 1.06988 30.8008 0.968017C30.7169 0.866153 30.6094 0.785381 30.4845 0.730359C30.3597 0.675337 30.22 0.647156 30.0735 0.64744L1.84667 0.588437C1.70041 0.587542 1.55 0.615116 1.40412 0.669571C1.25825 0.724028 1.11979 0.804286 0.996746 0.905717C0.8737 1.00715 0.768498 1.12774 0.687208 1.26055C0.605919 1.39335 0.550152 1.53574 0.523121 1.67949Z" fill="#DDEAFF" fill-opacity="0.75"/>
</svg>
